# xmcd
#
# Track frame offsets: 
#        150
#        13282
#        26615
#        41445
#        54627
#        67367
#        82422
#        96912
#        111427
#        125762
#        139805
#        152902
#        166065
#        177030
#        190475
#        205032
#        218122
#        232105
#        246270
#        259417
#        273195
#        289575
#        303655
#
# Disc length: 4203 seconds
#
# Revision: 4
# Processed by: cddbd v1.5.2PL0 Copyright (c) Steve Scherf et al.
# Submitted via: ExactAudioCopy v0.99pb4
#
DISCID=68106917
DTITLE=Roosevelt Sykes - Complete Recorded Works - Vol. 3
DYEAR=1931
DGENRE=Blues
TTITLE0=Hard Luck Blues
TTITLE1=Strange man Blues
TTITLE2=Sail On Black Sue
TTITLE3=Barrel Of Whiskey Blues
TTITLE4=Prisoner's Blues
TTITLE5=Mosby Stomp
TTITLE6=Mr. Sykes Blues
TTITLE7=Highway 61 Blues
TTITLE8=Jelly Roll Mill
TTITLE9=In Here With Your Heavy Stuff
TTITLE10=Don't Rush Yourself
TTITLE11=I Done You Wrong
TTITLE12=Sad And Lonely Day
TTITLE13=Try My Whiskey Blues
TTITLE14=Lonesome Clock Blues
TTITLE15=Found A Note On My Door
TTITLE16=New 44 Blues
TTITLE17=Working Dollar Blues
TTITLE18=Big Legs Ida Blues
TTITLE19=Devil's Island Gin Blues
TTITLE20=Dresser With The Drawers
TTITLE21=Mr. Carl's Blues
TTITLE22=She Showed It All
EXTD=Complete Recorded Workds In Chronological Order\nVol. 3 - 19 Sept
EXTD=ember 1931 to 11 December 1933\n\nSee Also: http://www.document-r
EXTD=ecords.co.uk/\nDocument Records\nDOCD-5118\n
EXTT0=(Emmerson Houston, vcl.]\n
EXTT1=(Emmerson Houston, vcl.]\n
EXTT2=("Stump" Johnson, vcl.]\n
EXTT3=("Stump" Johnson, vcl.]\n
EXTT4=(Matthew McClure, vcl.]\n
EXTT5=(Mosby And Sykes]\n
EXTT6=
EXTT7=
EXTT8=(Eithel Smith, vcl.]\n
EXTT9=(Isabel Sykes, vcl.]\n
EXTT10=(Isabel Sykes, vcl.]\n
EXTT11=
EXTT12=
EXTT13=(Clarence Harris, vcl.]\n
EXTT14=(Clarence Harris, vcl.]\n
EXTT15=(Frank Pluitt, vcl.]\n
EXTT16=
EXTT17=
EXTT18=
EXTT19=
EXTT20=(Carl Rafferty, vcl.]\n
EXTT21=(Carl Rafferty, vcl.]\n
EXTT22=(Napoleon Fletcher, vcl.]\n
PLAYORDER=
